<?xml version="1.0" encoding="utf-8"?>
<!-- Generator: Adobe Illustrator 17.0.0, SVG Export Plug-In . SVG Version: 6.00 Build 0)  -->
<!DOCTYPE svg PUBLIC "-//W3C//DTD SVG 1.1//EN" "http://www.w3.org/Graphics/SVG/1.1/DTD/svg11.dtd">
<svg version="1.1" xmlns="http://www.w3.org/2000/svg" xmlns:xlink="http://www.w3.org/1999/xlink" x="0px" y="0px" width="150px"
	 height="150px" viewBox="0 0 150 150" enable-background="new 0 0 150 150" xml:space="preserve">
<g id="Fondo" display="none">
	
		<rect x="-844.091" y="-357.727" display="inline" fill="#B3B3B3" stroke="#FFFFFF" stroke-width="2.8347" stroke-linecap="round" stroke-linejoin="round" stroke-miterlimit="10" width="4114.545" height="1498.992"/>
</g>
<g id="Iconos">
	<g>
		<path fill="#FFFFFF" d="M58.784,104.562l-27.736-0.006c-0.064,0.003-0.147,0.006-0.248,0.006c-3.538,0-7.106-2.472-7.106-7.99
			V44.267c0-5.521,3.567-7.992,7.106-7.992c0.1,0,0.184,0.003,0.248,0.006l27.738-0.006l60.165,0.006
			c0.062-0.003,0.145-0.006,0.248-0.006c3.535,0,7.104,2.471,7.104,7.992l-0.001,52.305c0,5.518-3.569,7.99-7.105,7.99
			c-0.101,0-0.186-0.003-0.248-0.006L58.784,104.562z M119.123,99.471l0.102,0.008c1.347-0.003,1.989-0.926,1.989-2.907
			l0.001-52.305c0-1.982-0.641-2.906-2.017-2.906l-0.155,0.021l-0.019-0.014l-74.562-0.007l-13.591,0.007l-0.101-0.01
			c-1.348,0.003-1.989,0.926-1.989,2.908v52.305c0,1.981,0.641,2.904,2.018,2.904l0.154-0.021l0.022,0.015l27.808,0.006
			L119.123,99.471z M139.594,108.638H10.405v5.087h129.189V108.638L139.594,108.638z M85.435,78.179l-8.326-8.66l3.57-3.715
			l-14.275-4.947l4.758,14.847l3.569-3.713l8.328,8.664L85.435,78.179z"/>
	</g>
</g>
</svg>
